<mxfile host="app.diagrams.net" agent="Mozilla/5.0 (Windows NT 10.0; Win64; x64) AppleWebKit/537.36 (KHTML, like Gecko) Chrome/128.0.0.0 Safari/537.36" version="24.7.10">
  <diagram name="Page-1" id="1DdkZN7Yy3Mi0Z4bggej">
    <mxGraphModel dx="2062" dy="614" grid="0" gridSize="10" guides="1" tooltips="1" connect="1" arrows="1" fold="1" page="1" pageScale="1" pageWidth="827" pageHeight="1169" background="#DC143C" math="0" shadow="0">
      <root>
        <mxCell id="0" />
        <mxCell id="1" parent="0" />
        <mxCell id="ZtVpjy0hqFXNPelZv5EK-29" style="edgeStyle=orthogonalEdgeStyle;rounded=0;orthogonalLoop=1;jettySize=auto;html=1;exitX=1;exitY=0.5;exitDx=0;exitDy=0;exitPerimeter=0;entryX=0;entryY=0.5;entryDx=0;entryDy=0;fontColor=#000000;strokeColor=#ffffff;curved=0;" edge="1" parent="1" source="ZtVpjy0hqFXNPelZv5EK-39" target="ZtVpjy0hqFXNPelZv5EK-44">
          <mxGeometry relative="1" as="geometry">
            <mxPoint x="-723" y="161" as="sourcePoint" />
            <mxPoint x="-628.0000000000002" y="161" as="targetPoint" />
          </mxGeometry>
        </mxCell>
        <mxCell id="ZtVpjy0hqFXNPelZv5EK-30" style="edgeStyle=orthogonalEdgeStyle;rounded=0;orthogonalLoop=1;jettySize=auto;html=1;exitX=1;exitY=0.5;exitDx=0;exitDy=0;entryX=0;entryY=0.5;entryDx=0;entryDy=0;fontColor=#ffffff;strokeColor=#ffffff;" edge="1" parent="1" source="ZtVpjy0hqFXNPelZv5EK-3" target="ZtVpjy0hqFXNPelZv5EK-21">
          <mxGeometry relative="1" as="geometry" />
        </mxCell>
        <mxCell id="ZtVpjy0hqFXNPelZv5EK-31" style="edgeStyle=orthogonalEdgeStyle;rounded=0;orthogonalLoop=1;jettySize=auto;html=1;exitX=1;exitY=0.5;exitDx=0;exitDy=0;entryX=0;entryY=0.5;entryDx=0;entryDy=0;fontColor=#ffffff;strokeColor=#ffffff;" edge="1" parent="1" source="ZtVpjy0hqFXNPelZv5EK-3" target="ZtVpjy0hqFXNPelZv5EK-20">
          <mxGeometry relative="1" as="geometry" />
        </mxCell>
        <mxCell id="ZtVpjy0hqFXNPelZv5EK-32" style="edgeStyle=orthogonalEdgeStyle;rounded=0;orthogonalLoop=1;jettySize=auto;html=1;exitX=1;exitY=0.5;exitDx=0;exitDy=0;entryX=0;entryY=0.5;entryDx=0;entryDy=0;fontColor=#ffffff;strokeColor=#ffffff;" edge="1" parent="1" source="ZtVpjy0hqFXNPelZv5EK-3" target="ZtVpjy0hqFXNPelZv5EK-22">
          <mxGeometry relative="1" as="geometry" />
        </mxCell>
        <mxCell id="ZtVpjy0hqFXNPelZv5EK-3" value="Automated Routing" style="rounded=1;whiteSpace=wrap;html=1;textShadow=1;labelBackgroundColor=none;labelBorderColor=none;strokeColor=none;fillStyle=auto;fillColor=#00FFFF;" vertex="1" parent="1">
          <mxGeometry x="-442" y="131" width="120" height="60" as="geometry" />
        </mxCell>
        <mxCell id="ZtVpjy0hqFXNPelZv5EK-20" value="FOLLOW-UP" style="shape=process;whiteSpace=wrap;html=1;backgroundOutline=1;fillColor=#00FFFF;strokeColor=none;" vertex="1" parent="1">
          <mxGeometry x="-282" y="131" width="120" height="60" as="geometry" />
        </mxCell>
        <mxCell id="ZtVpjy0hqFXNPelZv5EK-21" value="INSPECTION" style="shape=process;whiteSpace=wrap;html=1;backgroundOutline=1;fillColor=#00FFFF;strokeColor=none;" vertex="1" parent="1">
          <mxGeometry x="-282" y="31" width="120" height="60" as="geometry" />
        </mxCell>
        <mxCell id="ZtVpjy0hqFXNPelZv5EK-22" value="NOC" style="shape=process;whiteSpace=wrap;html=1;backgroundOutline=1;fillColor=#00FFFF;strokeColor=none;" vertex="1" parent="1">
          <mxGeometry x="-282" y="231" width="120" height="60" as="geometry" />
        </mxCell>
        <mxCell id="ZtVpjy0hqFXNPelZv5EK-38" style="edgeStyle=orthogonalEdgeStyle;rounded=0;orthogonalLoop=1;jettySize=auto;html=1;exitX=1;exitY=0.5;exitDx=0;exitDy=0;entryX=0;entryY=0.5;entryDx=0;entryDy=0;strokeColor=#ffffff;" edge="1" parent="1" source="ZtVpjy0hqFXNPelZv5EK-44" target="ZtVpjy0hqFXNPelZv5EK-3">
          <mxGeometry relative="1" as="geometry">
            <mxPoint x="-528" y="161" as="sourcePoint" />
          </mxGeometry>
        </mxCell>
        <mxCell id="ZtVpjy0hqFXNPelZv5EK-39" value="Customer/Business" style="sketch=0;points=[[0,0,0],[0.25,0,0],[0.5,0,0],[0.75,0,0],[1,0,0],[0,1,0],[0.25,1,0],[0.5,1,0],[0.75,1,0],[1,1,0],[0,0.25,0],[0,0.5,0],[0,0.75,0],[1,0.25,0],[1,0.5,0],[1,0.75,0]];outlineConnect=0;fontColor=#FFFFFF;fillColor=#00FFFF;strokeColor=#ffffff;dashed=0;verticalLabelPosition=bottom;verticalAlign=top;align=center;html=1;fontSize=14;fontStyle=0;aspect=fixed;shape=mxgraph.aws4.resourceIcon;resIcon=mxgraph.aws4.customer_enablement;fillStyle=auto;gradientColor=#000000;gradientDirection=south;fontFamily=Times New Roman;" vertex="1" parent="1">
          <mxGeometry x="-808" y="125" width="72" height="72" as="geometry" />
        </mxCell>
        <mxCell id="ZtVpjy0hqFXNPelZv5EK-44" value="Application" style="shape=image;editableCssRules=.*;verticalLabelPosition=bottom;labelBackgroundColor=none;verticalAlign=top;aspect=fixed;imageAspect=0;image=data:image/svg+xml,PHN2ZyB4bWxucz0iaHR0cDovL3d3dy53My5vcmcvMjAwMC9zdmciIHZpZXdCb3g9Ii0wLjUgLTAuNSAyMC4wMTUgMjgiIGhlaWdodD0iMjgiIHdpZHRoPSIyMC4wMTUiPiYjeGE7CSAgPHN0eWxlIHR5cGU9InRleHQvY3NzIj4uc3QwIHsgc3RvcC1jb2xvcjogcmdiKDAsIDIwNiwgMTcyKTsgfSAuc3QxIHsgc3RvcC1jb2xvcjogcmdiKDcsIDEzMSwgMTQzKTsgfSA8L3N0eWxlPiYjeGE7CTxkZWZzPiYjeGE7CQk8bGluZWFyR3JhZGllbnQgZ3JhZGllbnRVbml0cz0idXNlclNwYWNlT25Vc2UiIHkyPSIxOC4zMzYiIHgyPSIyMS43MDYiIHkxPSIzLjQ3NCIgeDE9IjEuMzE1IiBpZD0iQSI+JiN4YTsJCQk8c3RvcCBjbGFzcz0ic3QwIi8+JiN4YTsJCQk8c3RvcCBjbGFzcz0ic3QxIiBvZmZzZXQ9IjEiLz4mI3hhOwkJPC9saW5lYXJHcmFkaWVudD4mI3hhOwk8L2RlZnM+JiN4YTsJPHBhdGggZmlsbD0idXJsKCNBKSIgZD0iTTE5LjE3LS4xMTZhMS4zNiAxLjM2IDAgMCAxIC4yNjMuNDU0Yy4wNTkuMTcuMDg3LjM1MS4wOC41MzN2MjUuMjAzYzAgLjM2Ni0uMTIyLjcxOC0uMzQ0Ljk4N2ExLjE0IDEuMTQgMCAwIDEtLjM5Ny4zMzEgMS4wMiAxLjAyIDAgMCAxLS40ODYuMTA3SC43MjZhMS4wMiAxLjAyIDAgMCAxLS40ODYtLjEwNyAxLjE0IDEuMTQgMCAwIDEtLjM5Ny0uMzMxYy0uMjIxLS4yNjktLjM0NC0uNjIyLS4zNDQtLjk4N1Y5LjI1NmMwLS4zNjYuMTE1LS42NzcuMzQ0LS45MzNMNy4zNDktLjExNmMuMjQxLS4yNDcuNTU2LS4zODQuODg0LS4zODRoMTAuMDU2YTEuMTMgMS4xMyAwIDAgMSAuODgyLjM4NHptLTIuMTU4IDIuNDExSDguNzcxbC0uNTM4LjU0OXYzLjYxNWEyLjg1IDIuODUgMCAwIDEtLjczOCAxLjk3MyAyLjQyIDIuNDIgMCAwIDEtLjgwNi42MTUgMi4xOSAyLjE5IDAgMCAxLS45NTguMjA3SDIuNDlsLS40OS42MDF2MTQuODUxaDE1LjAxVjIuMjkzek00LjUwMyAxNC44OThjMC0uOTUuNDA4LTEuNDI1IDEuMjI4LTEuNDI1aDcuNTUzYy44MTggMCAxLjIyNi40NzMgMS4yMjYgMS40MjUgMCAuOTEyLS40MDggMS4zNjgtMS4yMjQgMS4zNjhINS43MjljLS44MTggMC0xLjIyNi0uNDU2LTEuMjI2LTEuMzY4em04Ljc4MSA0LjE2MmMuMzYxIDAgLjY1NS4xNDcuODg0LjQzOC4yMjIuMjY5LjM0NC42MjIuMzQ0Ljk4N3MtLjEyMy43MTgtLjM0NC45ODdhMS4xOSAxLjE5IDAgMCAxLS40MDYuMjkzYy0uMTUyLjA2Ni0uMzE0LjA5Ni0uNDc3LjA4OUg1LjczYy0uMTYzLjAwNy0uMzI1LS4wMjQtLjQ3Ny0uMDlhMS4xOSAxLjE5IDAgMCAxLS40MDYtLjI5NGMtLjIyMS0uMjY5LS4zNDMtLjYyLS4zNDMtLjk4NXMuMTIyLS43MTYuMzQzLS45ODVjLjEwOS0uMTQyLjI0NC0uMjU2LjM5Ny0uMzMxYTEuMDIgMS4wMiAwIDAgMSAuNDg2LS4xMDd6Ii8+JiN4YTs8L3N2Zz4=;fontColor=#FFFFFF;" vertex="1" parent="1">
          <mxGeometry x="-602" y="126.5" width="49.29" height="69" as="geometry" />
        </mxCell>
      </root>
    </mxGraphModel>
  </diagram>
</mxfile>
